HIERARCHY
ROOT SpineBase
{
  OFFSET 0.000000 0.000000 0.000000
  CHANNELS 6 Xposition Yposition Zposition Zrotation Xrotation Yrotation
  JOINT SpineMid
  {
    OFFSET 0.000000 33.312768 0.000000
    CHANNELS 3 Zrotation Xrotation Yrotation
    JOINT SpineShoulder
    {
      OFFSET 0.105799 24.782837 -0.888889
      CHANNELS 3 Zrotation Xrotation Yrotation
      JOINT Neck
      {
        OFFSET 0.095941 8.208073 -0.648769
        CHANNELS 3 Zrotation Xrotation Yrotation
        JOINT Head
        {
          OFFSET -1.484568 11.214464 4.070587
          CHANNELS 3 Zrotation Xrotation Yrotation
          End Site
          {
            OFFSET 0 0 0
          }
        }
      }
      JOINT ShoulderLeft
      {
        OFFSET -16.097504 -7.054365 -3.563986
        CHANNELS 3 Zrotation Xrotation Yrotation
        JOINT ElbowLeft
        {
          OFFSET -5.993387 -29.158072 5.220947
          CHANNELS 3 Zrotation Xrotation Yrotation
          JOINT WristLeft
          {
            OFFSET -1.168547 -22.866779 7.338016
            CHANNELS 3 Zrotation Xrotation Yrotation
            JOINT HandLeft
            {
              OFFSET -1.802074 -8.774005 1.889556
              CHANNELS 3 Zrotation Xrotation Yrotation
              JOINT HandTipLeft
              {
                OFFSET 1.360471 -5.095113 -1.708224
                CHANNELS 3 Zrotation Xrotation Yrotation
                End Site
                {
                  OFFSET 0 0 0
                }
              }
              JOINT ThumbLeft
              {
                OFFSET -2.413469 0.614763 -2.611264
                CHANNELS 3 Zrotation Xrotation Yrotation
                End Site
                {
                  OFFSET 0 0 0
                }
              }
            }
          }
        }
      }
      JOINT ShoulderRight
      {
        OFFSET 15.147963 -6.137854 -7.017348
        CHANNELS 3 Zrotation Xrotation Yrotation
        JOINT ElbowRight
        {
          OFFSET 8.849873 -29.510097 1.682841
          CHANNELS 3 Zrotation Xrotation Yrotation
          JOINT WristRight
          {
            OFFSET 7.555483 -22.369754 -0.314730
            CHANNELS 3 Zrotation Xrotation Yrotation
            JOINT HandRight
            {
              OFFSET 0.996453 -6.671199 -0.441648
              CHANNELS 3 Zrotation Xrotation Yrotation
              JOINT HandTipRight
              {
                OFFSET -0.626128 -7.433094 -0.973206
                CHANNELS 3 Zrotation Xrotation Yrotation
                End Site
                {
                  OFFSET 0 0 0
                }
              }
              JOINT ThumbRight
              {
                OFFSET 3.344145 0.543125 -5.342636
                CHANNELS 3 Zrotation Xrotation Yrotation
                End Site
                {
                  OFFSET 0 0 0
                }
              }
            }
          }
        }
      }
    }
  }
  JOINT HipLeft
  {
    OFFSET -5.689474 1.387011 -2.689686
    CHANNELS 3 Zrotation Xrotation Yrotation
    JOINT KneeLeft
    {
      OFFSET -1.322451 -44.923968 -4.502755
      CHANNELS 3 Zrotation Xrotation Yrotation
      JOINT AnkleLeft
      {
        OFFSET 1.214100 -34.334639 -1.869048
        CHANNELS 3 Zrotation Xrotation Yrotation
        JOINT FootLeft
        {
          OFFSET 0.010321 -5.607806 -9.083140
          CHANNELS 3 Zrotation Xrotation Yrotation
          End Site
          {
            OFFSET 0 0 0
          }
        }
      }
    }
  }
  JOINT HipRight
  {
    OFFSET 6.935611 1.814390 -4.074515
    CHANNELS 3 Zrotation Xrotation Yrotation
    JOINT KneeRight
    {
      OFFSET 4.100324 -44.848331 -4.365457
      CHANNELS 3 Zrotation Xrotation Yrotation
      JOINT AnkleRight
      {
        OFFSET 2.386437 -35.334552 -0.275719
        CHANNELS 3 Zrotation Xrotation Yrotation
        JOINT FootRight
        {
          OFFSET 5.738059 -4.664633 -5.758651
          CHANNELS 3 Zrotation Xrotation Yrotation
          End Site
          {
            OFFSET 0 0 0
          }
        }
      }
    }
  }
}
MOTION
Frames: 8
Frame Time: 0.033333
-42.280038 84.498838 225.266766 -0.000000 0.000000 6.259675 -0.000000 -0.000000 -6.259675 -0.000000 0.000000 0.000000 -0.000000 0.000000 0.000000 0.000000 0.000000 0.000000 -0.000000 0.000000 0.000000 -0.000000 0.000000 0.000000 -0.000000 0.000000 0.000000 -0.000000 0.000000 0.000000 0.000000 0.000000 0.000000 0.000000 0.000000 0.000000 -0.000000 0.000000 0.000000 -0.000000 0.000000 0.000000 -0.000000 0.000000 0.000000 -0.000000 0.000000 0.000000 0.000000 0.000000 0.000000 0.000000 0.000000 0.000000 -0.000000 -0.000000 -6.259675 -0.000000 0.000000 0.000000 -0.000000 0.000000 0.000000 0.000000 0.000000 0.000000 -0.000000 -0.000000 -6.259675 -0.000000 0.000000 0.000000 -0.000000 0.000000 0.000000 0.000000 0.000000 0.000000
-42.306510 84.470036 225.234608 0.006789 0.037482 6.549881 -0.011020 -0.036463 -6.549887 -0.000000 0.000000 0.000000 -0.000000 0.000000 0.000000 0.000000 0.000000 0.000000 -0.000000 0.000000 0.000000 -0.000000 0.000000 0.000000 0.976345 -0.535643 0.325089 -0.973334 0.541097 -0.315929 0.000000 0.000000 0.000000 0.000000 0.000000 0.000000 -0.000000 0.000000 0.000000 -1.846893 -3.783317 -1.321061 -0.990373 -3.585424 0.293372 3.602775 6.532382 0.606997 0.000000 0.000000 0.000000 0.000000 0.000000 0.000000 -0.011020 -0.036463 -6.549887 -0.000000 0.000000 0.000000 0.082552 3.966819 -0.122401 0.000000 0.000000 0.000000 -0.011020 -0.036463 -6.549887 -0.000000 0.000000 0.000000 -4.463189 3.183644 9.663152 0.000000 0.000000 0.000000
-42.309696 84.448831 225.204262 0.028746 0.069952 6.848865 -0.036883 -0.066025 -6.848903 -0.000000 0.000000 0.000000 -0.000000 0.000000 0.000000 0.000000 0.000000 0.000000 -0.000000 0.000000 0.000000 -0.929394 -0.381346 -0.281439 2.805985 -0.734455 0.917112 -1.860613 1.149838 -0.617501 0.000000 0.000000 0.000000 0.000000 0.000000 0.000000 -0.000000 0.000000 0.000000 -3.704185 -7.353304 -2.704484 -2.010440 -7.078078 0.477580 7.381224 12.489171 0.618303 0.000000 0.000000 0.000000 0.000000 0.000000 0.000000 -0.036883 -0.066025 -6.848903 -0.000000 0.000000 0.000000 0.126690 6.965604 -0.182123 0.000000 0.000000 0.000000 -0.036883 -0.066025 -6.848903 -0.000000 0.000000 0.000000 -8.042130 5.029272 16.914638 0.000000 0.000000 0.000000
-42.289597 84.435221 225.175728 0.065867 0.097427 7.156363 -0.077491 -0.088463 -7.156479 -0.000000 0.000000 0.000000 -0.000000 0.000000 0.000000 0.000000 0.000000 0.000000 0.623855 -0.839326 0.288745 -1.863338 0.355505 -0.639052 3.924699 -1.263936 1.328612 -2.646237 1.825199 -0.901533 0.000000 0.000000 0.000000 0.000000 0.000000 0.000000 -0.931910 -0.497193 -0.206746 -4.566732 -10.178773 -3.870581 -3.008744 -10.222225 0.602089 11.293867 17.526889 0.042023 0.000000 0.000000 0.000000 0.000000 0.000000 0.000000 -0.077491 -0.088463 -7.156479 -0.000000 0.000000 0.000000 0.130818 9.139559 -0.181935 0.000000 0.000000 0.000000 -0.077491 -0.088463 -7.156479 -0.000000 0.000000 0.000000 -10.311654 5.948743 21.387966 0.000000 0.000000 0.000000
-42.246212 84.429207 225.149005 0.118158 0.119919 7.472094 -0.132749 -0.103535 -7.472338 -0.000000 0.000000 0.000000 -0.000000 0.000000 0.000000 0.000000 0.000000 0.000000 0.763639 -1.049150 0.359287 -2.212377 0.509719 -0.762211 4.834581 -1.904758 1.708928 -3.314963 2.564946 -1.165420 0.000000 0.000000 0.000000 0.000000 0.000000 0.000000 -1.266421 -0.696769 -0.289741 -5.982803 -12.998463 -5.165994 -3.954052 -12.852812 0.721429 15.249547 21.451009 -1.025162 0.000000 0.000000 0.000000 0.000000 0.000000 0.000000 -0.132749 -0.103535 -7.472338 -0.000000 0.000000 0.000000 0.094490 10.597176 -0.123673 0.000000 0.000000 0.000000 -0.132749 -0.103535 -7.472338 -0.000000 0.000000 0.000000 -11.157773 6.289197 23.084805 0.000000 0.000000 0.000000
-42.179542 84.430789 225.124093 0.185634 0.137436 7.795752 -0.202561 -0.110985 -7.796171 -0.000000 0.000000 0.000000 -0.000000 0.000000 0.000000 0.000000 0.000000 0.000000 0.870106 -1.225450 0.416856 -2.426983 0.680790 -0.843583 5.521413 -2.657643 2.056267 -4.609561 2.703785 -1.300430 0.000000 0.000000 0.000000 0.000000 0.000000 0.000000 -1.615912 -0.914909 -0.380874 -7.290807 -15.484064 -6.407542 -4.840012 -14.903491 0.881641 19.114599 24.237230 -2.415785 0.000000 0.000000 0.000000 0.000000 0.000000 0.000000 -0.202561 -0.110985 -7.796171 -0.000000 0.000000 0.000000 0.017754 11.412104 -0.008139 0.000000 0.000000 0.000000 -0.202561 -0.110985 -7.796171 -0.000000 0.000000 0.000000 -10.525230 6.177279 21.971483 0.000000 0.000000 0.000000
-42.064173 84.442499 225.098642 0.292167 0.145732 8.220069 -0.310002 -0.102460 -8.220718 -0.000000 0.000000 0.000000 -0.000000 0.000000 0.000000 0.000000 0.000000 0.000000 0.962094 -1.392358 0.469961 -2.549843 1.096120 -0.907153 6.169258 -4.353435 2.597698 -6.362666 4.200528 -1.136756 0.000000 0.000000 0.000000 0.000000 0.000000 0.000000 -2.187161 -1.253789 -0.527378 -8.636460 -18.013667 -7.786933 -6.210003 -16.257854 1.330241 24.438335 23.844491 -4.469687 0.000000 0.000000 0.000000 0.000000 0.000000 0.000000 -0.310002 -0.102460 -8.220718 -0.000000 0.000000 0.000000 -0.982647 12.357145 1.464084 0.000000 0.000000 0.000000 -0.310002 -0.102460 -8.220718 -0.000000 0.000000 0.000000 -3.586692 5.250721 10.828552 0.000000 0.000000 0.000000
-41.930291 84.463013 225.081657 0.406137 0.145549 8.593213 -0.423326 -0.083228 -8.594036 -0.000000 0.000000 0.000000 -0.000000 0.000000 0.000000 0.000000 0.000000 0.000000 0.974844 -1.487514 0.492698 -2.414069 1.374834 -0.889318 6.501681 -5.380688 2.906800 -7.940505 5.801110 -0.616275 0.000000 0.000000 0.000000 0.000000 0.000000 0.000000 -2.674139 -1.532994 -0.652128 -9.707234 -19.934421 -8.921857 -7.287500 -17.989631 1.479830 26.644071 26.152621 -5.302020 0.000000 0.000000 0.000000 0.000000 0.000000 0.000000 -0.423326 -0.083228 -8.594036 -0.000000 0.000000 0.000000 -0.367666 9.040872 0.568468 0.000000 0.000000 0.000000 -0.423326 -0.083228 -8.594036 -0.000000 0.000000 0.000000 0.170875 3.501643 3.935279 0.000000 0.000000 0.000000
